<mxfile host="app.diagrams.net" agent="Mozilla/5.0 (Macintosh; Intel Mac OS X 10_15_7) AppleWebKit/537.36 (KHTML, like Gecko) Chrome/130.0.0.0 Safari/537.36" version="24.8.4">
  <diagram name="Page-1" id="uALIY26RaTK7eE_k0dOH">
    <mxGraphModel dx="1883" dy="1191" grid="1" gridSize="10" guides="1" tooltips="1" connect="1" arrows="1" fold="1" page="1" pageScale="1" pageWidth="850" pageHeight="1100" math="0" shadow="0">
      <root>
        <mxCell id="0" />
        <mxCell id="1" parent="0" />
        <mxCell id="7gGh1LqMtEvpUxUy_uRH-13" value="UI" style="rounded=0;whiteSpace=wrap;html=1;" vertex="1" parent="1">
          <mxGeometry x="25" y="60" width="190" height="1140" as="geometry" />
        </mxCell>
        <mxCell id="7gGh1LqMtEvpUxUy_uRH-4" style="edgeStyle=orthogonalEdgeStyle;rounded=0;orthogonalLoop=1;jettySize=auto;html=1;entryX=0.5;entryY=0;entryDx=0;entryDy=0;" edge="1" parent="1" source="7gGh1LqMtEvpUxUy_uRH-1" target="7gGh1LqMtEvpUxUy_uRH-3">
          <mxGeometry relative="1" as="geometry" />
        </mxCell>
        <mxCell id="7gGh1LqMtEvpUxUy_uRH-1" value="PROBING/OPEN Q" style="rounded=0;whiteSpace=wrap;html=1;" vertex="1" parent="1">
          <mxGeometry x="60" y="110" width="120" height="60" as="geometry" />
        </mxCell>
        <mxCell id="7gGh1LqMtEvpUxUy_uRH-10" style="edgeStyle=orthogonalEdgeStyle;rounded=0;orthogonalLoop=1;jettySize=auto;html=1;entryX=0;entryY=0.5;entryDx=0;entryDy=0;" edge="1" parent="1" source="7gGh1LqMtEvpUxUy_uRH-3" target="7gGh1LqMtEvpUxUy_uRH-9">
          <mxGeometry relative="1" as="geometry" />
        </mxCell>
        <mxCell id="7gGh1LqMtEvpUxUy_uRH-3" value="DETERMINE APPROPRIATE SCALE" style="rounded=0;whiteSpace=wrap;html=1;" vertex="1" parent="1">
          <mxGeometry x="230" y="220" width="120" height="60" as="geometry" />
        </mxCell>
        <mxCell id="7gGh1LqMtEvpUxUy_uRH-15" style="edgeStyle=orthogonalEdgeStyle;rounded=0;orthogonalLoop=1;jettySize=auto;html=1;entryX=0.5;entryY=0;entryDx=0;entryDy=0;" edge="1" parent="1" source="7gGh1LqMtEvpUxUy_uRH-5" target="7gGh1LqMtEvpUxUy_uRH-14">
          <mxGeometry relative="1" as="geometry" />
        </mxCell>
        <mxCell id="7gGh1LqMtEvpUxUy_uRH-5" value="BEGIN SCALE SEQ. W/ SELECTED SCALE" style="rounded=0;whiteSpace=wrap;html=1;" vertex="1" parent="1">
          <mxGeometry x="60" y="350" width="120" height="60" as="geometry" />
        </mxCell>
        <mxCell id="7gGh1LqMtEvpUxUy_uRH-12" style="edgeStyle=orthogonalEdgeStyle;rounded=0;orthogonalLoop=1;jettySize=auto;html=1;entryX=1;entryY=0.5;entryDx=0;entryDy=0;" edge="1" parent="1" target="7gGh1LqMtEvpUxUy_uRH-5">
          <mxGeometry relative="1" as="geometry">
            <mxPoint x="620" y="290" as="sourcePoint" />
            <mxPoint x="350" y="385" as="targetPoint" />
            <Array as="points">
              <mxPoint x="620" y="385" />
              <mxPoint x="180" y="385" />
            </Array>
          </mxGeometry>
        </mxCell>
        <mxCell id="7gGh1LqMtEvpUxUy_uRH-8" value="Vector&amp;nbsp;&lt;div&gt;Search&lt;/div&gt;&lt;div&gt;Protcol DOCS&lt;/div&gt;" style="ellipse;whiteSpace=wrap;html=1;aspect=fixed;" vertex="1" parent="1">
          <mxGeometry x="570" y="200" width="100" height="100" as="geometry" />
        </mxCell>
        <mxCell id="7gGh1LqMtEvpUxUy_uRH-11" style="edgeStyle=orthogonalEdgeStyle;rounded=0;orthogonalLoop=1;jettySize=auto;html=1;entryX=0;entryY=0.5;entryDx=0;entryDy=0;" edge="1" parent="1" source="7gGh1LqMtEvpUxUy_uRH-9" target="7gGh1LqMtEvpUxUy_uRH-8">
          <mxGeometry relative="1" as="geometry" />
        </mxCell>
        <mxCell id="7gGh1LqMtEvpUxUy_uRH-9" value="Determine Relevant Conditions to Test for" style="ellipse;whiteSpace=wrap;html=1;aspect=fixed;" vertex="1" parent="1">
          <mxGeometry x="410" y="200" width="100" height="100" as="geometry" />
        </mxCell>
        <mxCell id="7gGh1LqMtEvpUxUy_uRH-14" value="PROMPT USER W/ DATA ENTRY" style="rounded=0;whiteSpace=wrap;html=1;" vertex="1" parent="1">
          <mxGeometry x="60" y="540" width="120" height="60" as="geometry" />
        </mxCell>
      </root>
    </mxGraphModel>
  </diagram>
</mxfile>
